<?xml version="1.0" encoding="iso-8859-1"?>
<!-- Uploaded to: SVG Repo, www.svgrepo.com, Generator: SVG Repo Mixer Tools -->
<svg fill="#000000" version="1.1" id="Layer_1" xmlns="http://www.w3.org/2000/svg" xmlns:xlink="http://www.w3.org/1999/xlink" 
	 viewBox="0 0 498.92 498.92" xml:space="preserve">
<g>
	<g>
		<g>
			<path d="M73.46,256c13.232,0,24-10.768,24-24c0-6.52-2.632-12.432-6.872-16.76l32.784-72.12c1.96,0.52,3.976,0.88,6.088,0.88
				c4.016,0,7.744-1.08,11.072-2.832l45.328,38.856c-0.216,1.296-0.4,2.616-0.4,3.976c0,13.232,10.768,24,24,24s24-10.768,24-24
				c0-3.912-1.032-7.56-2.696-10.824l56.96-63.288c2.984,1.336,6.264,2.112,9.736,2.112c13.232,0,24-10.768,24-24s-10.768-24-24-24
				s-24,10.768-24,24c0,3.912,1.032,7.552,2.696,10.824l-56.96,63.288c-2.976-1.336-6.264-2.112-9.736-2.112
				c-5.952,0-11.336,2.256-15.536,5.864l-42.432-36.376c1.256-2.912,1.968-6.112,1.968-9.488c0-13.232-10.768-24-24-24
				s-24,10.768-24,24c0,5.2,1.704,9.984,4.52,13.92l-33.8,74.36c-0.904-0.112-1.784-0.28-2.72-0.28c-13.232,0-24,10.768-24,24
				S60.228,256,73.46,256z M297.46,80c4.408,0,8,3.584,8,8s-3.592,8-8,8c-4.408,0-8-3.584-8-8S293.052,80,297.46,80z M209.46,176
				c4.408,0,8,3.584,8,8s-3.592,8-8,8s-8-3.584-8-8S205.052,176,209.46,176z M129.46,112c4.408,0,8,3.584,8,8s-3.592,8-8,8
				s-8-3.584-8-8S125.052,112,129.46,112z M73.46,224c4.408,0,8,3.584,8,8s-3.592,8-8,8s-8-3.584-8-8S69.052,224,73.46,224z"/>
			<rect x="305.46" y="240" width="16" height="16"/>
			<rect x="225.46" y="240" width="64" height="16"/>
			<path d="M235.676,336l-6.4-16H369.46v-48h-16V48h16V0h-368v48h16v224h-16v48h140.28L74.012,493.088l14.896,5.832L158.916,320
				h18.544v176h16V320h18.584l13.416,33.544V496h272V336H235.676z M17.46,16h336v16h-336V16z M337.46,48v224h-304V48H337.46z
				 M17.46,304v-16h336v16H17.46z M433.46,352h16v32h-16V352z M385.46,480h-144V352h144V480z M481.46,480h-80V352h16v48h48v-48h16
				V480z"/>
			<rect x="353.46" y="448" width="16" height="16"/>
			<rect x="321.46" y="448" width="16" height="16"/>
			<rect x="353.46" y="416" width="16" height="16"/>
		</g>
	</g>
</g>
</svg>