<?xml version="1.0" encoding="utf-8"?>
<!-- Uploaded to: SVG Repo, www.svgrepo.com, Generator: SVG Repo Mixer Tools -->
<svg fill="#000000" width="800px" height="800px" viewBox="-4 0 32 32" version="1.1" xmlns="http://www.w3.org/2000/svg">
<title>edit</title>
<path d="M17.438 22.469v-4.031l2.5-2.5v7.344c0 1.469-1.219 2.688-2.656 2.688h-14.625c-1.469 0-2.656-1.219-2.656-2.688v-14.594c0-1.469 1.188-2.688 2.656-2.688h14.844v0.031l-2.5 2.469h-11.5c-0.531 0-1 0.469-1 1.031v12.938c0 0.563 0.469 1 1 1h12.938c0.531 0 1-0.438 1-1zM19.813 7.219l2.656 2.656 1.219-1.219-2.656-2.656zM10.469 16.594l2.625 2.656 8.469-8.469-2.625-2.656zM8.594 21.094l3.625-0.969-2.656-2.656z"></path>
</svg>