<?xml version="1.0" encoding="utf-8"?>

<!DOCTYPE svg PUBLIC "-//W3C//DTD SVG 1.1//EN" "http://www.w3.org/Graphics/SVG/1.1/DTD/svg11.dtd">
<!-- Uploaded to: SVG Repo, www.svgrepo.com, Generator: SVG Repo Mixer Tools -->
<svg fill="#000000" version="1.1" id="Layer_1" xmlns="http://www.w3.org/2000/svg" xmlns:xlink="http://www.w3.org/1999/xlink" 
	 width="800px" height="800px" viewBox="0 0 100 100" enable-background="new 0 0 100 100" xml:space="preserve">
<g>
	<path d="M63.121,66.863c0.391,0.391,0.902,0.586,1.414,0.586s1.023-0.195,1.414-0.586l18.122-18.12
		c0.375-0.375,0.586-0.884,0.586-1.414s-0.211-1.039-0.586-1.414L65.95,27.792c-0.781-0.781-2.047-0.781-2.828,0
		s-0.781,2.047,0,2.828l14.85,14.852c-2.017-0.058-4.17-0.148-6.421-0.247c-16.326-0.718-36.647-1.608-47.423,8.704
		c-4.66,4.46-7.022,10.645-7.022,18.381c0,1.104,0.896,2,2,2s2-0.852,2-1.956c0-6.696,1.894-11.719,5.788-15.447
		c9.542-9.132,29.739-8.156,44.481-7.51c2.102,0.093,4.118,0.243,6.033,0.354L63.121,64.035
		C62.34,64.816,62.34,66.082,63.121,66.863z"/>
</g>
</svg>